HIERARCHY
ROOT Hips
{
    OFFSET 0.000000 0.000000 0.000000
    CHANNELS 6 Xposition Yposition Zposition Zrotation Xrotation Yrotation
    JOINT Spine
    {
        OFFSET -0.000000 14.517291 0.000000
        CHANNELS 3 Zrotation Xrotation Yrotation
        JOINT Spine1
        {
            OFFSET -0.000000 37.558300 0.000000
            CHANNELS 3 Zrotation Xrotation Yrotation
            JOINT Neck
            {
                OFFSET -0.000000 37.404057 3.400369
                CHANNELS 3 Zrotation Xrotation Yrotation
                JOINT Head
                {
                    OFFSET -0.000000 24.785618 -3.540803
                    CHANNELS 3 Zrotation Xrotation Yrotation
                    End Site
                    {
                        OFFSET -0.000000 35.408028 0.000000
                    }
                }
            }
            JOINT LeftShoulder
            {
                OFFSET 6.992933 33.973492 -0.192664
                CHANNELS 3 Zrotation Xrotation Yrotation
                JOINT LeftArm
                {
                    OFFSET 21.527611 0.000000 0.000000
                    CHANNELS 3 Zrotation Xrotation Yrotation
                    JOINT LeftForeArm
                    {
                        OFFSET 56.353916 0.000000 0.000000
                        CHANNELS 3 Zrotation Xrotation Yrotation
                        JOINT LeftHand
                        {
                            OFFSET 47.774071 0.000000 0.000000
                            CHANNELS 3 Zrotation Xrotation Yrotation
                            End Site
                            {
                                OFFSET 26.556021 0.000000 0.000000
                            }
                        }
                    }
                }
            }
            JOINT RightShoulder
            {
                OFFSET -7.065357 33.973492 -0.192664
                CHANNELS 3 Zrotation Xrotation Yrotation
                JOINT RightArm
                {
                    OFFSET -21.527611 0.000000 0.000000
                    CHANNELS 3 Zrotation Xrotation Yrotation
                    JOINT RightForeArm
                    {
                        OFFSET -56.353916 0.000000 0.000000
                        CHANNELS 3 Zrotation Xrotation Yrotation
                        JOINT RightHand
                        {
                            OFFSET -47.774071 0.000000 0.000000
                            CHANNELS 3 Zrotation Xrotation Yrotation
                            End Site
                            {
                                OFFSET -26.556021 0.000000 0.000000
                            }
                        }
                    }
                }
            }
        }
    }
    JOINT LeftUpLeg
    {
        OFFSET 17.704014 0.000000 0.000000
        CHANNELS 3 Zrotation Xrotation Yrotation
        JOINT LeftLeg
        {
            OFFSET -0.000000 -81.181816 0.000000
            CHANNELS 3 Zrotation Xrotation Yrotation
            JOINT LeftFoot
            {
                OFFSET -0.000000 -62.821102 0.000000
                CHANNELS 3 Zrotation Xrotation Yrotation
                JOINT LeftToeBase
                {
                    OFFSET -0.000000 -11.507608 26.556021
                    CHANNELS 3 Zrotation Xrotation Yrotation
                    End Site
                    {
                        OFFSET -0.000000 0.000000 7.081605
                    }
                }
            }
        }
    }
    JOINT RightUpLeg
    {
        OFFSET -17.704014 0.000000 0.000000
        CHANNELS 3 Zrotation Xrotation Yrotation
        JOINT RightLeg
        {
            OFFSET -0.000000 -81.181816 0.000000
            CHANNELS 3 Zrotation Xrotation Yrotation
            JOINT RightFoot
            {
                OFFSET -0.000000 -62.821102 0.000000
                CHANNELS 3 Zrotation Xrotation Yrotation
                JOINT RightToeBase
                {
                    OFFSET -0.000000 -11.507608 26.556021
                    CHANNELS 3 Zrotation Xrotation Yrotation
                    End Site
                    {
                        OFFSET -0.000000 0.000000 7.081605
                    }
                }
            }
        }
    }
}
MOTION
Frames:    4
Frame Time:    0.008333
-9.400062    151.310303    -13.645360    -0.080998    0.136128    23.244778    -2.525004    0.005744    6.916275    -3.244498    2.481283    2.376883    -5.453430    -6.336343    -14.404561    18.453709    6.491120    -12.333467    8.449963    -3.526248    -13.047037    -34.956589    0.113721    -82.672951    9.553182    -56.943260    -108.266945    -12.693917    -47.345409    -21.474319    -12.292492    1.255923    7.961864    22.459351    -20.634970    55.581814    -7.650371    -20.839775    13.992247    11.565980    -15.828824    40.996735    1.196149    -34.070713    -27.619173    -10.464268    22.168873    -22.009424    -10.720826    3.733512    28.963652    0.000000    0.000000    0.000000    3.772178    11.603354    -14.157296    3.218392    24.806015    -0.952317    -3.798482    -31.907097    -6.958634    0.000000    0.000000    0.000000    
-9.384645    151.312943    -13.647312    -0.079629    0.130823    23.234640    -2.517493    -0.032119    6.940825    -3.231652    2.532468    2.386499    -5.445849    -6.313263    -14.416390    18.449436    6.427782    -12.338634    8.401620    -3.419758    -13.006248    -34.849686    0.655123    -82.316246    8.991189    -56.194378    -108.450829    -12.326772    -47.007065    -21.103453    -12.300973    1.250063    7.944739    22.461866    -20.616421    55.569218    -7.652621    -20.855673    13.977805    11.597793    -15.833805    41.001133    1.196594    -34.060070    -27.612194    -10.460595    22.165237    -22.003332    -10.714911    3.736382    28.952343    0.000000    0.000000    0.000000    3.763585    11.615750    -14.149641    3.217373    24.795231    -0.943846    -3.768854    -31.905716    -6.938345    0.000000    0.000000    0.000000    
-9.370022    151.314987    -13.653740    -0.079462    0.123321    23.223547    -2.509387    -0.059345    6.967680    -3.215970    2.579042    2.396591    -5.446449    -6.291460    -14.429684    18.457386    6.357522    -12.341403    8.368044    -3.344917    -12.948313    -34.803982    1.242249    -81.932236    8.430232    -55.367157    -108.621277    -12.028230    -46.595806    -20.560003    -12.302678    1.246854    7.903632    22.471479    -20.615946    55.590767    -7.634482    -20.856787    13.963610    11.570897    -15.849542    40.985508    1.198559    -34.050804    -27.629709    -10.467842    22.160374    -21.987804    -10.723190    3.728634    28.970900    0.000000    0.000000    0.000000    3.757118    11.627522    -14.135585    3.228532    24.783590    -0.939265    -3.782325    -31.893587    -6.961488    0.000000    0.000000    0.000000    
-9.352329    151.317123    -13.656407    -0.079763    0.116549    23.211182    -2.487578    -0.076518    6.989030    -3.221620    2.598845    2.404500    -5.445995    -6.265216    -14.434995    18.459373    6.301808    -12.339092    8.226501    -3.092401    -12.897846    -34.358829    1.784101    -81.562813    8.326670    -54.752140    -108.344421    -11.943640    -45.997646    -20.685757    -12.298811    1.233043    7.888786    22.479025    -20.586876    55.576515    -7.624464    -20.853334    13.969297    11.576586    -15.847239    40.963062    1.197372    -34.041294    -27.626627    -10.457767    22.161936    -21.985945    -10.717963    3.730024    28.961079    0.000000    0.000000    0.000000    3.750474    11.642701    -14.118547    3.229453    24.767790    -0.978275    -3.754487    -31.895794    -6.903062    0.000000    0.000000    0.000000    
